<svg xmlns="http://www.w3.org/2000/svg" width="1200" height="800" viewBox="0 0 1200 800" role="img" aria-label="Dining reward benefit">
  <defs>
    <linearGradient id="bg" x1="0" y1="0" x2="1" y2="1">
      <stop offset="0" stop-color="#0B1220"/>
      <stop offset="0.55" stop-color="#F59E0B"/>
      <stop offset="1" stop-color="#EF4444"/>
    </linearGradient>
    <radialGradient id="glow" cx="38%" cy="28%" r="70%">
      <stop offset="0" stop-color="#FFFFFF" stop-opacity="0.18"/>
      <stop offset="1" stop-color="#FFFFFF" stop-opacity="0"/>
    </radialGradient>
    <linearGradient id="card" x1="0" y1="0" x2="1" y2="1">
      <stop offset="0" stop-color="#FFFFFF" stop-opacity="0.16"/>
      <stop offset="1" stop-color="#FFFFFF" stop-opacity="0.06"/>
    </linearGradient>
  </defs>
  <rect width="1200" height="800" fill="url(#bg)"/>
  <rect width="1200" height="800" fill="url(#glow)"/>
  <g opacity="0.25">
    <path d="M0 590 C 280 520, 430 680, 650 610 S 980 520, 1200 610 V 800 H 0 Z" fill="#0B1220"/>
  </g>

  <g transform="translate(720 170)">
    <rect x="-60" y="-60" width="360" height="360" rx="56" fill="url(#card)" stroke="#FFFFFF" stroke-opacity="0.18"/>
    <g transform="translate(68 68)" fill="none" stroke="#FFFFFF" stroke-linecap="round" stroke-linejoin="round">
      <path d="M55 10v110" stroke-width="10" stroke-opacity="0.9"/>
      <path d="M20 10v62c0 18 12 32 35 32s35-14 35-32V10" stroke-width="10" stroke-opacity="0.9"/>
      <path d="M165 10v110" stroke-width="10" stroke-opacity="0.9"/>
      <path d="M165 10c34 15 52 42 52 74v36" stroke-width="10" stroke-opacity="0.9"/>
      <path d="M20 170h250" stroke-width="10" stroke-opacity="0.45"/>
      <path d="M50 220c32-30 72-45 120-45s88 15 120 45" stroke-width="10" stroke-opacity="0.45"/>
    </g>
  </g>
</svg>
