<svg xmlns="http://www.w3.org/2000/svg" width="1200" height="800" viewBox="0 0 1200 800" role="img" aria-label="Golf course benefit">
  <defs>
    <linearGradient id="bg" x1="0" y1="0" x2="1" y2="1">
      <stop offset="0" stop-color="#0B2A4A"/>
      <stop offset="0.55" stop-color="#0EA5E9"/>
      <stop offset="1" stop-color="#22C55E"/>
    </linearGradient>
    <radialGradient id="glow" cx="35%" cy="30%" r="70%">
      <stop offset="0" stop-color="#FFFFFF" stop-opacity="0.22"/>
      <stop offset="1" stop-color="#FFFFFF" stop-opacity="0"/>
    </radialGradient>
    <linearGradient id="card" x1="0" y1="0" x2="1" y2="1">
      <stop offset="0" stop-color="#FFFFFF" stop-opacity="0.16"/>
      <stop offset="1" stop-color="#FFFFFF" stop-opacity="0.06"/>
    </linearGradient>
  </defs>
  <rect width="1200" height="800" fill="url(#bg)"/>
  <rect width="1200" height="800" fill="url(#glow)"/>
  <g opacity="0.35">
    <path d="M0 580 C 260 520, 380 640, 650 590 S 980 520, 1200 590 V 800 H 0 Z" fill="#0B1220"/>
    <path d="M0 620 C 260 560, 390 680, 660 630 S 980 560, 1200 630 V 800 H 0 Z" fill="#0B1220" opacity="0.55"/>
  </g>

  <g transform="translate(720 170)">
    <rect x="-60" y="-60" width="360" height="360" rx="56" fill="url(#card)" stroke="#FFFFFF" stroke-opacity="0.18"/>
    <g transform="translate(120 110)" fill="none" stroke="#FFFFFF" stroke-linecap="round" stroke-linejoin="round">
      <path d="M0 185V5" stroke-width="10" stroke-opacity="0.9"/>
      <path d="M0 5l95 40-95 40" stroke-width="10" stroke-opacity="0.9"/>
      <path d="M-70 185c20-35 50-52 90-52s70 17 90 52" stroke-width="10" stroke-opacity="0.55"/>
      <circle cx="-22" cy="118" r="12" fill="#FFFFFF" fill-opacity="0.95" stroke="none"/>
    </g>
  </g>
</svg>
