<svg xmlns="http://www.w3.org/2000/svg" width="1200" height="800" viewBox="0 0 1200 800" role="img" aria-label="Pro shop discount benefit">
  <defs>
    <linearGradient id="bg" x1="0" y1="0" x2="1" y2="1">
      <stop offset="0" stop-color="#0B2A4A"/>
      <stop offset="0.55" stop-color="#8B5CF6"/>
      <stop offset="1" stop-color="#22C55E"/>
    </linearGradient>
    <radialGradient id="glow" cx="36%" cy="28%" r="70%">
      <stop offset="0" stop-color="#FFFFFF" stop-opacity="0.18"/>
      <stop offset="1" stop-color="#FFFFFF" stop-opacity="0"/>
    </radialGradient>
    <linearGradient id="card" x1="0" y1="0" x2="1" y2="1">
      <stop offset="0" stop-color="#FFFFFF" stop-opacity="0.16"/>
      <stop offset="1" stop-color="#FFFFFF" stop-opacity="0.06"/>
    </linearGradient>
  </defs>
  <rect width="1200" height="800" fill="url(#bg)"/>
  <rect width="1200" height="800" fill="url(#glow)"/>
  <g opacity="0.22">
    <path d="M0 610 C 260 560, 410 700, 650 640 S 980 560, 1200 640 V 800 H 0 Z" fill="#0B1220"/>
  </g>

  <g transform="translate(720 170)">
    <rect x="-60" y="-60" width="360" height="360" rx="56" fill="url(#card)" stroke="#FFFFFF" stroke-opacity="0.18"/>
    <g transform="translate(55 65)" fill="none" stroke="#FFFFFF" stroke-linecap="round" stroke-linejoin="round">
      <path d="M35 75h220l-18 150H53L35 75Z" stroke-width="10" stroke-opacity="0.9"/>
      <path d="M85 75c0-44 36-80 80-80s80 36 80 80" stroke-width="10" stroke-opacity="0.55"/>
      <path d="M70 140h150" stroke-width="10" stroke-opacity="0.35"/>
      <circle cx="220" cy="52" r="18" fill="#FFFFFF" fill-opacity="0.95" stroke="none"/>
    </g>
  </g>
</svg>
