<svg xmlns="http://www.w3.org/2000/svg" width="1200" height="800" viewBox="0 0 1200 800" role="img" aria-label="Wellness and spa benefit">
  <defs>
    <linearGradient id="bg" x1="0" y1="0" x2="1" y2="1">
      <stop offset="0" stop-color="#0B1220"/>
      <stop offset="0.55" stop-color="#06B6D4"/>
      <stop offset="1" stop-color="#A78BFA"/>
    </linearGradient>
    <radialGradient id="glow" cx="38%" cy="28%" r="70%">
      <stop offset="0" stop-color="#FFFFFF" stop-opacity="0.18"/>
      <stop offset="1" stop-color="#FFFFFF" stop-opacity="0"/>
    </radialGradient>
    <linearGradient id="card" x1="0" y1="0" x2="1" y2="1">
      <stop offset="0" stop-color="#FFFFFF" stop-opacity="0.16"/>
      <stop offset="1" stop-color="#FFFFFF" stop-opacity="0.06"/>
    </linearGradient>
  </defs>
  <rect width="1200" height="800" fill="url(#bg)"/>
  <rect width="1200" height="800" fill="url(#glow)"/>
  <g opacity="0.22">
    <path d="M0 600 C 280 540, 430 700, 650 630 S 980 540, 1200 630 V 800 H 0 Z" fill="#0B1220"/>
  </g>

  <g transform="translate(720 170)">
    <rect x="-60" y="-60" width="360" height="360" rx="56" fill="url(#card)" stroke="#FFFFFF" stroke-opacity="0.18"/>
    <g transform="translate(88 78)" fill="none" stroke="#FFFFFF" stroke-linecap="round" stroke-linejoin="round">
      <path d="M90 25c-28 0-50 22-50 50 0 44 50 84 50 84s50-40 50-84c0-28-22-50-50-50Z" stroke-width="10" stroke-opacity="0.9"/>
      <path d="M90 66c10 0 18 8 18 18" stroke-width="10" stroke-opacity="0.55"/>
      <path d="M20 220c34-28 76-42 126-42s92 14 126 42" stroke-width="10" stroke-opacity="0.45"/>
    </g>
  </g>
</svg>
